<svg xmlns="http://www.w3.org/2000/svg" viewBox="0 0 1200 200">
  <!-- Background -->
  <rect width="1200" height="200" fill="#ffffff"/>
  
  <!-- Boxes -->
  <rect x="50" y="70" width="160" height="60" rx="10" fill="#f5f5f5" stroke="#333" stroke-width="2"/>
  <text x="130" y="105" text-anchor="middle" font-family="Arial" font-size="16">JavaScript</text>
  
  <rect x="270" y="70" width="160" height="60" rx="10" fill="#e6f3ff" stroke="#2196f3" stroke-width="2"/>
  <text x="350" y="105" text-anchor="middle" font-family="Arial" font-size="16">AST</text>
  
  <rect x="490" y="70" width="160" height="60" rx="10" fill="#e8f5e9" stroke="#4caf50" stroke-width="2"/>
  <text x="570" y="105" text-anchor="middle" font-family="Arial" font-size="16">Bytecode</text>
  
  <rect x="710" y="70" width="160" height="60" rx="10" fill="#fff3e0" stroke="#ff9800" stroke-width="2"/>
  <text x="790" y="95" text-anchor="middle" font-family="Arial" font-size="16">TurboFan</text>
  <text x="790" y="115" text-anchor="middle" font-family="Arial" font-size="14">最適化</text>
  
  <rect x="930" y="70" width="160" height="60" rx="10" fill="#fce4ec" stroke="#e91e63" stroke-width="2"/>
  <text x="1010" y="95" text-anchor="middle" font-family="Arial" font-size="16">MIPS</text>
  <text x="1010" y="115" text-anchor="middle" font-family="Arial" font-size="14">アセンブリ</text>
  
  <!-- Arrows -->
  <defs>
    <marker id="arrowhead" markerWidth="10" markerHeight="7" refX="9" refY="3.5" orient="auto">
      <polygon points="0 0, 10 3.5, 0 7" fill="#666"/>
    </marker>
  </defs>
  
  <path d="M210 100 L270 100" fill="none" stroke="#666" stroke-width="2" marker-end="url(#arrowhead)"/>
  <path d="M430 100 L490 100" fill="none" stroke="#666" stroke-width="2" marker-end="url(#arrowhead)"/>
  <path d="M650 100 L710 100" fill="none" stroke="#666" stroke-width="2" marker-end="url(#arrowhead)"/>
  <path d="M870 100 L930 100" fill="none" stroke="#666" stroke-width="2" marker-end="url(#arrowhead)"/>
</svg>
