<svg width="800" height="600" xmlns="http://www.w3.org/2000/svg">
    <!-- 背景 -->
    <rect width="100%" height="100%" fill="#f8f9fa"/>
    
    <!-- タイトル -->
    <text x="400" y="50" text-anchor="middle" font-size="24" font-weight="bold">NestJSのインスタンスの生存期間と共有範囲</text>

    <!-- シングルトンスコープ（左側） -->
    <g transform="translate(150,150)">
        <rect width="200" height="300" rx="10" fill="#e3f2fd" stroke="#1976d2"/>
        <text x="100" y="-20" text-anchor="middle" font-weight="bold">シングルトンスコープ</text>
        <text x="100" y="0" text-anchor="middle" font-size="12">(アプリケーション全体で1つ)</text>
        
        <!-- シングルトンの要素 -->
        <g transform="translate(20,30)">
            <rect width="160" height="40" rx="5" fill="#bbdefb"/>
            <text x="80" y="25" text-anchor="middle">データベース接続</text>
        </g>
        
        <g transform="translate(20,90)">
            <rect width="160" height="40" rx="5" fill="#bbdefb"/>
            <text x="80" y="25" text-anchor="middle">サービスインスタンス</text>
        </g>
        
        <g transform="translate(20,150)">
            <rect width="160" height="40" rx="5" fill="#bbdefb"/>
            <text x="80" y="25" text-anchor="middle">グローバル状態</text>
        </g>
    </g>

    <!-- リクエストスコープ（右側） -->
    <g transform="translate(450,150)">
        <rect width="200" height="300" rx="10" fill="#f3e5f5" stroke="#7b1fa2"/>
        <text x="100" y="-20" text-anchor="middle" font-weight="bold">リクエストスコープ</text>
        <text x="100" y="0" text-anchor="middle" font-size="12">(リクエストごとに新規作成)</text>
        
        <!-- リクエストスコープの要素 -->
        <g transform="translate(20,30)">
            <rect width="160" height="40" rx="5" fill="#e1bee7"/>
            <text x="80" y="25" text-anchor="middle">キャッシュ管理</text>
        </g>
        
        <g transform="translate(20,90)">
            <rect width="160" height="40" rx="5" fill="#e1bee7"/>
            <text x="80" y="25" text-anchor="middle">リクエストトラッキング</text>
        </g>
        
        <g transform="translate(20,150)">
            <rect width="160" height="40" rx="5" fill="#e1bee7"/>
            <text x="80" y="25" text-anchor="middle">マルチテナンシー</text>
        </g>
        
        <g transform="translate(20,210)">
            <rect width="160" height="40" rx="5" fill="#e1bee7"/>
            <text x="80" y="25" text-anchor="middle">ユーザー固有の状態</text>
        </g>
    </g>

    <!-- Node.jsの特徴説明 -->
    <g transform="translate(100,500)">
        <rect width="600" height="60" rx="5" fill="#fff3e0" stroke="#ef6c00"/>
        <text x="0" y="25" text-anchor="start" dx="20">
            <tspan x="20" dy="0">Node.jsの特徴: 単一のイベントループモデル</tspan>
            <tspan x="20" dy="25">全てのリクエストで同じインスタンスを安全に共有できる</tspan>
        </text>
    </g>
</svg> 